<svg xmlns="http://www.w3.org/2000/svg" xmlns:xlink="http://www.w3.org/1999/xlink" viewBox="0 0 780.78 884.93"><defs><linearGradient id="linear-gradient" x1="328.99" y1="739.1" x2="328.99" y2="-108.56" gradientUnits="userSpaceOnUse"><stop offset="0" stop-color="#fff" stop-opacity="0"/><stop offset=".27" stop-color="#cfcef8" stop-opacity=".3"/><stop offset=".63" stop-color="#9491f0" stop-opacity=".67"/><stop offset=".88" stop-color="#6e6bea" stop-opacity=".91"/><stop offset="1" stop-color="#605ce8"/></linearGradient><linearGradient id="linear-gradient-2" x1="331.23" y1="91.96" x2="323.57" y2="772.12" gradientUnits="userSpaceOnUse"><stop offset="0" stop-color="#0c0f47"/><stop offset=".36" stop-color="#1b247a"/><stop offset=".79" stop-color="#2b3ab0"/><stop offset="1" stop-color="#3143c5"/></linearGradient><linearGradient id="linear-gradient-3" x1="329.24" y1="310.78" x2="333.44" y2="883.05" gradientUnits="userSpaceOnUse"><stop offset="0" stop-color="#0212f2" stop-opacity="0"/><stop offset=".02" stop-color="#1124f2" stop-opacity=".1"/><stop offset=".1" stop-color="#3c55f4" stop-opacity=".37"/><stop offset=".16" stop-color="#607ff5" stop-opacity=".59"/><stop offset=".23" stop-color="#7c9ff6" stop-opacity=".77"/><stop offset=".28" stop-color="#90b6f6" stop-opacity=".9"/><stop offset=".33" stop-color="#9dc4f7" stop-opacity=".97"/><stop offset=".36" stop-color="#a1c9f7"/><stop offset=".41" stop-color="#a9cbf8"/><stop offset=".67" stop-color="#d0d6fa"/><stop offset=".87" stop-color="#e8ddfb"/><stop offset="1" stop-color="#f1dffc"/></linearGradient><linearGradient id="linear-gradient-4" x1="329.79" y1="650.07" x2="331.66" y2="282.9" gradientUnits="userSpaceOnUse"><stop offset=".13" stop-color="#0212f2" stop-opacity="0"/><stop offset=".14" stop-color="#0717f2" stop-opacity=".03"/><stop offset=".21" stop-color="#3d56f4" stop-opacity=".37"/><stop offset=".26" stop-color="#6887f5" stop-opacity=".64"/><stop offset=".31" stop-color="#87abf6" stop-opacity=".83"/><stop offset=".35" stop-color="#9ac1f7" stop-opacity=".96"/><stop offset=".37" stop-color="#a1c9f7"/><stop offset=".4" stop-color="#a6ccf7"/><stop offset=".45" stop-color="#b4d4f9"/><stop offset=".49" stop-color="#cce2fb"/><stop offset=".54" stop-color="#eef5fe"/><stop offset=".56" stop-color="#fff"/></linearGradient><linearGradient id="linear-gradient-5" x1="79.72" y1="535.78" x2="79.7" y2="531.79" gradientUnits="userSpaceOnUse"><stop offset=".13" stop-color="#0212f2" stop-opacity="0"/><stop offset=".21" stop-color="#334bf4" stop-opacity=".31"/><stop offset=".3" stop-color="#6e8ef5" stop-opacity=".68"/><stop offset=".36" stop-color="#93b9f7" stop-opacity=".91"/><stop offset=".39" stop-color="#a1c9f7"/><stop offset=".42" stop-color="#a6ccf7"/><stop offset=".46" stop-color="#b4d4f9"/><stop offset=".5" stop-color="#cce2fb"/><stop offset=".54" stop-color="#eef5fe"/><stop offset=".56" stop-color="#fff"/></linearGradient><linearGradient id="linear-gradient-6" x1="306.74" y1="670.78" x2="305.1" y2="384.66" xlink:href="#linear-gradient-5"/><linearGradient id="linear-gradient-7" x1="371.8" y1="687.97" x2="337.64" y2="414.03" xlink:href="#linear-gradient-5"/><linearGradient id="linear-gradient-8" x1="272.6" y1="571.66" x2="274.25" y2="647.48" gradientUnits="userSpaceOnUse"><stop offset="0" stop-color="#4767f5"/><stop offset=".43" stop-color="#4565f3"/><stop offset=".64" stop-color="#405feb"/><stop offset=".81" stop-color="#3653de"/><stop offset=".96" stop-color="#2844cb"/><stop offset="1" stop-color="#233ec4"/></linearGradient><linearGradient id="linear-gradient-9" x1="253.6" y1="568.12" x2="233.46" y2="609.62" gradientUnits="userSpaceOnUse"><stop offset="0" stop-color="#4767f5"/><stop offset=".31" stop-color="#4564f2"/><stop offset=".58" stop-color="#3d5be7"/><stop offset=".82" stop-color="#304dd6"/><stop offset="1" stop-color="#233ec4"/></linearGradient><linearGradient id="linear-gradient-10" x1="329.65" y1="811.49" x2="328.78" y2="607.08" gradientUnits="userSpaceOnUse"><stop offset=".32" stop-color="#233ec4"/><stop offset=".47" stop-color="#203cc0"/><stop offset=".62" stop-color="#1937b4"/><stop offset=".76" stop-color="#0b2fa1"/><stop offset=".85" stop-color="#012891"/></linearGradient><linearGradient id="linear-gradient-11" x1="239.37" y1="628.34" x2="555.04" y2="628.34" gradientUnits="userSpaceOnUse"><stop offset="0" stop-color="#3343bd"/><stop offset=".17" stop-color="#2f3caf"/><stop offset=".5" stop-color="#26288a"/><stop offset=".93" stop-color="#170a51"/></linearGradient><linearGradient id="linear-gradient-12" x1="213.29" y1="542.62" x2="346.1" y2="653.29" gradientUnits="userSpaceOnUse"><stop offset="0" stop-color="#3343bd"/><stop offset="1" stop-color="#170a51"/></linearGradient><linearGradient id="linear-gradient-13" x1="242.86" y1="307.23" x2="242.39" y2="299.65" gradientUnits="userSpaceOnUse"><stop offset="0" stop-color="#2a0d63" stop-opacity="0"/><stop offset=".2" stop-color="#33167b" stop-opacity=".22"/><stop offset=".59" stop-color="#4327a9" stop-opacity=".64"/><stop offset=".87" stop-color="#4d31c6" stop-opacity=".9"/><stop offset="1" stop-color="#5135d1"/></linearGradient><linearGradient id="linear-gradient-14" x1="235.07" y1="318.16" x2="370.99" y2="355.02" gradientUnits="userSpaceOnUse"><stop offset="0" stop-color="#ff342d"/><stop offset=".2" stop-color="#fa352e"/><stop offset=".43" stop-color="#eb3630"/><stop offset=".7" stop-color="#d23933"/><stop offset=".98" stop-color="#af3d38"/><stop offset="1" stop-color="#ac3d38"/></linearGradient><linearGradient id="linear-gradient-15" x1="426.98" y1="223.83" x2="400.62" y2="235.1" xlink:href="#linear-gradient-13"/><linearGradient id="linear-gradient-16" x1="293.36" y1="397.44" x2="527.66" y2="331.33" xlink:href="#linear-gradient-14"/><linearGradient id="linear-gradient-17" x1="541.45" y1="457.16" x2="409.7" y2="145.5" gradientUnits="userSpaceOnUse"><stop offset="0" stop-color="#ff342d"/><stop offset=".59" stop-color="#cc3a34"/><stop offset="1" stop-color="#ac3d38"/></linearGradient><linearGradient id="linear-gradient-18" x1="523.69" y1="494.14" x2="485.14" y2="519.69" gradientUnits="userSpaceOnUse"><stop offset="0" stop-color="#3343bd"/><stop offset=".05" stop-color="#313fb5"/><stop offset=".32" stop-color="#26288a"/><stop offset=".57" stop-color="#1e186b"/><stop offset=".78" stop-color="#190e58"/><stop offset=".93" stop-color="#170a51"/></linearGradient><linearGradient id="linear-gradient-19" x1="401.08" y1="852.11" x2="451.43" y2="852.11" gradientUnits="userSpaceOnUse"><stop offset="0" stop-color="#3c2568"/><stop offset="1" stop-color="#2c1b4d"/></linearGradient><linearGradient id="linear-gradient-20" x1="395.27" y1="56.87" x2="505.44" y2="229.68" gradientUnits="userSpaceOnUse"><stop offset="0" stop-color="#3343bd"/><stop offset=".03" stop-color="#313fb6"/><stop offset=".21" stop-color="#282c92"/><stop offset=".39" stop-color="#201d76"/><stop offset=".57" stop-color="#1b1361"/><stop offset=".75" stop-color="#180c55"/><stop offset=".93" stop-color="#170a51"/></linearGradient><linearGradient id="linear-gradient-21" x1="424.27" y1="78.19" x2="482.26" y2="201.12" gradientUnits="userSpaceOnUse"><stop offset="0" stop-color="#3343bd" stop-opacity="0"/><stop offset="1" stop-color="#120840"/></linearGradient><linearGradient id="linear-gradient-22" x1="498.39" y1="157.91" x2="499.17" y2="158.79" xlink:href="#linear-gradient-11"/><radialGradient id="radial-gradient" cx="432.79" cy="862.04" r="442.47" gradientTransform="matrix(1 0 0 .04 0 826.19)" gradientUnits="userSpaceOnUse"><stop offset="0" stop-color="#605ce8"/><stop offset=".91" stop-color="#f2f2fd" stop-opacity=".03"/></radialGradient><style>.cls-17{fill:#f8a06d}.cls-21{fill:#2e184a;opacity:.27}.cls-25{fill:#170a51}.cls-30{fill:#fff}</style></defs><g id="Layer_2" data-name="Layer 2"><g id="Layer_1-2" data-name="Layer 1"><path d="M6.61 377.45c6.13 55.18 17.57 117.87 38.22 180C87.18 684.79 168.34 809.67 322.22 862.1a21 21 0 0013.52 0C667.16 749.18 661.25 300.26 657 213.83a20.88 20.88 0 00-14.17-18.7C521.18 153.68 385.28 41.88 342.57 5.05a20.82 20.82 0 00-27.19 0c-7.56 6.52-18 15.38-30.82 25.78-29.43 23.94-71.18 56.06-118 86.52-27.46 17.89-56.65 35.21-86.11 50A525.75 525.75 0 0115 195.19a20.76 20.76 0 00-14 18.67c-.43 9.14-.9 22.41-1 38.89a1081.21 1081.21 0 006.61 124.7z" fill="url(#linear-gradient)"/><path d="M780.78 863.22c0 12-280.39 21.71-451.79 21.71s-310.34-9.72-310.34-21.71S157.59 841.51 329 841.51s451.78 9.72 451.78 21.71z" opacity=".63" fill="url(#radial-gradient)"/><path d="M68.1 387.39C73.06 432.05 82.31 482.78 99 533c34.36 103.37 100.3 204.69 225.49 246.92a13.93 13.93 0 008.93 0c272.12-91.8 264.29-462.8 260.83-527.12a13.74 13.74 0 00-9.36-12.3C484.05 206.87 370.35 112.37 338 84.31a13.76 13.76 0 00-18 0c-6.2 5.38-15.4 13.21-26.93 22.58a1145.8 1145.8 0 01-95.46 70 719.36 719.36 0 01-69.68 40.44A420.28 420.28 0 0173 240.52a13.74 13.74 0 00-9.35 12.31c-.39 7.43-.85 18.95-.93 33.65a877.59 877.59 0 005.38 100.91z" fill="url(#linear-gradient-2)"/><path d="M68.2 387.7c5 44.66 14.22 95.39 30.93 145.63C133.5 636.7 199.43 738 324.62 780.25a13.93 13.93 0 008.93 0c272.12-91.8 264.3-462.8 260.83-527.12a13.74 13.74 0 00-9.36-12.3C484.15 207.18 370.45 112.68 338.1 84.62a13.76 13.76 0 00-18 0c-6.2 5.38-15.4 13.21-26.92 22.58a1146.16 1146.16 0 01-95.47 70A718.16 718.16 0 01128 217.65a420.28 420.28 0 01-54.85 23.18 13.74 13.74 0 00-9.34 12.31c-.4 7.43-.86 18.95-.93 33.65A877.25 877.25 0 0068.2 387.7z" fill="url(#linear-gradient-3)"/><path d="M569.91 496.16c-8.6 32.51-20 65.48-35.1 97.15A442.66 442.66 0 01513 633.7a378.53 378.53 0 01-35.77 49.3 332.94 332.94 0 01-33.48 33.84q-3.74 3.29-7.57 6.44c-64.87 1.68-143 2.77-210.91 2.83a325.32 325.32 0 01-12.91-10.89c-55.45-49.29-90.64-114.52-112.84-180.69L99 533q-4.23-12.75-7.84-25.51a52.66 52.66 0 0132.87-11.44 53.2 53.2 0 0110.7 1.08v-1.08A33.25 33.25 0 01168 462.82h1.52a16.63 16.63 0 1125.59 14 33.15 33.15 0 016.15 19.26v1.08a53 53 0 0157.44 10.1v-1a16.63 16.63 0 1132 6.35h1.27a33.16 33.16 0 0124.82 11.13 54.25 54.25 0 015.82-5.53A53.11 53.11 0 01356 506.22a53.3 53.3 0 0111.52 1.27c0-.41-.06-.83-.06-1.27a16.62 16.62 0 0132.54-4.75c.55-.35 1.1-.69 1.67-1a33.24 33.24 0 0149.41 24.25 52.87 52.87 0 0122.18-4.86c1.36 0 2.71 0 4 .15a52.59 52.59 0 0127.19 10 33.27 33.27 0 0146.66-12.62 16.87 16.87 0 01-.73-4.89 16.63 16.63 0 0119.5-16.38z" fill="url(#linear-gradient-4)" opacity=".6"/><path d="M79.64 533.06c.09 1.06.13 2.19.15 3.38-.04-1.18-.09-2.3-.15-3.38z" fill="url(#linear-gradient-5)" opacity=".6"/><path d="M513 633.7a378.53 378.53 0 01-35.77 49.3 332.94 332.94 0 01-33.48 33.84c-62.93 1-155.17.13-231.39-1.62-55.45-49.29-90.64-114.52-112.84-180.69a28.77 28.77 0 0136 13.12 45.75 45.75 0 0146.17-4.65 28.77 28.77 0 0144.19-20.12A14.38 14.38 0 01254 527c0 .37 0 .73-.05 1.1a45.83 45.83 0 0144 14 28.77 28.77 0 0121.48-9.63h1.1a14.12 14.12 0 01-1.1-5.49 14.39 14.39 0 0110.18-13.75 14 14 0 014.21-.63 14.38 14.38 0 0114.39 14.4v.89a45.88 45.88 0 0149.7-8.74v-.93a28.65 28.65 0 015.32-16.66 13.31 13.31 0 01-1.49-1.1 14.38 14.38 0 1123.62-11h1.32a28.76 28.76 0 0128.76 28.77v.93a46.39 46.39 0 019.26-.93 45.83 45.83 0 0112.59 1.77 46 46 0 0127.54 22.08c-5.57 9.56 1.81 51.54 8.17 91.62z" fill="url(#linear-gradient-6)" opacity=".6"/><path d="M534.81 593.31A442.66 442.66 0 01513 633.7a378.53 378.53 0 01-35.77 49.3c-96.39 9.34-256.8 19.95-260 16.23-11.97-13.67-55.23-127.68-12.66-142.46a11.05 11.05 0 013.18-.77 10.85 10.85 0 0111.58 13.09 21.7 21.7 0 0131.08 5.52 34.63 34.63 0 0134.44-6.55 21.73 21.73 0 0131.9-18.06 10.86 10.86 0 0121.46 1.22v.83a34.59 34.59 0 0134 7.6 21.63 21.63 0 0115.54-8.65l.82-.06a10.87 10.87 0 018.67-15.83A10.87 10.87 0 01409 545v.67a34.62 34.62 0 0136.8-9.87c0-.24-.07-.47-.1-.7a21.61 21.61 0 012.9-12.89 10.85 10.85 0 011.82-20 10.2 10.2 0 012.25-.45 10.89 10.89 0 0111.78 9.87l1-.11a21.69 21.69 0 0120.13 9.8 19.73 19.73 0 011.56 2.86 21.46 21.46 0 011.86 7.06c0 .23 0 .47.05.7a35.07 35.07 0 016.84-1.32h.11a34.61 34.61 0 0131.86 15.27c-2.75 5.76 1.48 25.27 6.95 47.42z" fill="url(#linear-gradient-7)" opacity=".6"/><path d="M429.75 642.46c-12.2 16.46-23.59 17.83-40.19 32.11H185a307.77 307.77 0 01-25.11-18.24 432.32 432.32 0 01-42.74-76.06c10.23-10 23.29-18.06 43.48-18 39.91.02 145.61 86.39 269.12 80.19z" fill="url(#linear-gradient-8)"/><path d="M321 626.71c-74.19-23.49-132.86-64.43-160.31-64.47 41.8 7 70.9 47 100.27 60.59 29.76 13.82 60.04 3.88 60.04 3.88z" fill="url(#linear-gradient-9)"/><path d="M499.74 653.9c-38.34 54.92-91.84 100.93-166.29 126a13.93 13.93 0 01-8.93 0c-74.45-25.11-127.95-71.12-166.31-126z" fill="url(#linear-gradient-10)"/><path d="M345.6 675.67c-16.47 14.42-80.83 28.11-57.43 45.28 22.29 16.37 65.93 40.33 78.83 45.63q12-5.54 23.15-11.81s-52-23.57-63.65-31.33c-24.72-16.47 33.55-33.28 47.92-48.87 11.13-12.07-42.51-19.34-50.52-20.67h-29.21c18.45 3.4 67.76 6.66 50.91 21.77z" fill="#012891" opacity=".64"/><path d="M202.44 706q-3.48-3.35-6.84-6.79a13.11 13.11 0 016.84 6.79z" fill="#ede0f7" opacity=".73"/><path d="M552 417.06C545.35 423 472.52 459 444 467.8c2.17-5 4.05-9.76 5.52-14.16-27.87 3.81-97.23 12.49-128.76 20.15-8 13.72-69.59 120.47-79.61 166.57-5.96 27.19 4.34 72.47 14.85 107.64a320.94 320.94 0 0044.68 23c-.15-1-8.54-56 9.8-94.71 15.31-32.31 67.89-75.82 81.06-87.74-14 114.1 41.82 251 41.82 251l14-.78c2.06-27.77 44-72 92.34-257.12 16.72-64.02 17.92-119.47 12.3-164.59z" fill="url(#linear-gradient-11)"/><path d="M405.59 533c-5.53 19.12-8.39 29.79-14.1 55.58-13.17 11.92-65.75 55.43-81.06 87.74-18.34 38.73-9.95 93.74-9.8 94.71A320.94 320.94 0 01256 748c-10.46-35.19-20.76-80.47-14.85-107.66 10-46.1 71.62-152.85 79.61-166.57 19.37 36.37 84.83 59.23 84.83 59.23z" fill="url(#linear-gradient-12)"/><path class="cls-17" d="M276.89 316.37s-14-11.51-20.69-14.51c-15.82-7.11-18.06 7.82-35.69-7.89-3.21-2.85-7.84 1.24-2.54 6.06 8 7.29 13 11.31 23.85 12.91 8.88 1.3 15.87 1.78 23.15 11.27z"/><path d="M252.55 300.54c-8.76-2.44-13 2.27-20.17.59 6.5 3.08 13.78 2.2 20.17-.59z" fill="url(#linear-gradient-13)" opacity=".29"/><path d="M276.89 316.37s57.76 38.18 102.4-4.32l-28 70.32s-37.84 31.85-93.6-53.37z" fill="#1625fa"/><path d="M276.89 316.37s57.76 38.18 102.4-4.32l-28 70.32s-37.84 31.85-93.6-53.37z" fill="url(#linear-gradient-14)"/><path class="cls-21" d="M366 322.09l-14.66 60.28s-37.88 31.86-93.65-53.37l4.1-2.7c67.21 100.7 97.9 0 104.21-4.21z"/><path d="M534.88 427a236.12 236.12 0 01-20 66.11 104.89 104.89 0 00-19.25-18.82 189.42 189.42 0 004.86-30.26c12.75-5.98 24.98-12.03 34.39-17.03z" fill="#1b0e2b" opacity=".27"/><path class="cls-17" d="M391.59 275.59S411.13 271.05 403 224c0 0-33.3-3-23.71-44.93s54.09-58.61 54.09-58.61 60.75 28.24 43.21 65.89-30.28 52.37-12.79 65.26z"/><path d="M431.73 214.85c-11.93 7.46-19.44 11.38-34.08 7.92A27 27 0 00403 224a130.83 130.83 0 012 22.85c13-10.3 17.57-18.85 26.73-32z" fill="url(#linear-gradient-15)" opacity=".29"/><path d="M406.07 224H403s-33.3-3-23.71-44.92 54.09-58.61 54.09-58.61C425.21 124 389.47 143 381 180c-9.6 42 25.07 44 25.07 44z" fill="#ffd2b8"/><path class="cls-25" d="M499.09 158.35l-.2.11-.06-.14z"/><path class="cls-25" d="M499.38 159.42c-.23-.43-.4-.78-.49-1l-.06-.14h.26c.13.43.21.78.29 1.14z"/><path d="M552.48 420.83c-5.93 3.46-12 6.71-18.15 9.79-2.17 1.09-4.33 2.15-6.5 3.21-9.11 4.41-18.27 8.78-27.53 12.91-7 3.13-14.11 6.13-21.27 8.89-34.72 13.42-71.75 23.12-109.03 24.47a190.48 190.48 0 01-34.28-1.64c-5.34-.77-15-4.67-15-4.67S348.48 326 397.83 267.58a81.48 81.48 0 017.9-8.18c.89-.8 1.78-1.54 2.66-2.27.45-.36.9-.7 1.35-1.05.88-.68 1.78-1.32 2.67-1.93a57.34 57.34 0 016.72-4 52.2 52.2 0 015.37-2.27c.89-.31 1.78-.61 2.68-.86a47.42 47.42 0 0114.36-1.86h.09c1.12 0 2.24.09 3.36.19.27 0 .52 0 .78.07l.81.09c.22 0 .43.05.65.09.75.09 1.48.2 2.22.33a60.05 60.05 0 017.07 1.67 72.09 72.09 0 017.22 2.6c24.72 10.42 43 33.26 43 33.26s35.79 49.85 45.74 137.37z" fill="url(#linear-gradient-16)"/><path d="M447.24 245.65c-.22 0-.43-.06-.65-.08s-.54-.07-.8-.1l-.79-.07c-1.12-.1-2.24-.17-3.36-.19h-.09a47.07 47.07 0 00-14.36 1.86c-.89.26-1.78.54-2.68.86a49.34 49.34 0 00-5.37 2.28 55.87 55.87 0 00-6.72 3.94c-.89.61-1.78 1.25-2.67 1.93-.45.34-.9.7-1.34 1.05-.9.72-1.78 1.47-2.67 2.27a82.6 82.6 0 00-7.9 8.18c-49.35 58.43-77.11 206.2-77.11 206.2 5.23 1.35 9.62 3.91 14.95 4.68S357.8 245.2 449.47 246c-.75-.15-1.47-.26-2.23-.35z" fill="#ff7e7a" opacity=".43"/><path class="cls-21" d="M534.33 430.62c-2.17 1.09-4.33 2.15-6.5 3.21-9.11 4.41-18.27 8.78-27.53 12.91 7.7-83.87-50.84-118.84-50.84-118.84l7.81-76.54s7.25 1.26 7.28 3.94c0 3.38 62.57 42.78 71.23 121.86a200.81 200.81 0 01-1.45 53.46z"/><path d="M524.91 507a152.45 152.45 0 00-15.67-20.38c25.8-119.34-66.62-160.1-66.62-160.1l8.65-80.13c38.61 14.81 74.05 39 91.53 122.26C555.41 428.7 536.45 482 524.91 507z" fill="url(#linear-gradient-17)"/><path d="M484.18 467.62s29.12 65.19 21.52 91.14l32.89-27s-21.49-49.59-54.41-64.14z" fill="url(#linear-gradient-18)"/><path class="cls-30" d="M289.24 227.49a7.13 7.13 0 10-7.13 7.13 7.12 7.12 0 007.13-7.13M203.76 227.46a7.13 7.13 0 10-7.13 7.12 7.13 7.13 0 007.13-7.12M239.31 191.83a7.13 7.13 0 10-7.12-7.13 7.13 7.13 0 007.12 7.13M239.36 277.3a7.13 7.13 0 10-7.13-7.12 7.12 7.12 0 007.13 7.12M272.9 193.91a7.13 7.13 0 100 10.08 7.13 7.13 0 000-10.08M215.93 250.93a7.12 7.12 0 100 10.07 7.1 7.1 0 000-10.07M215.89 203.92a7.12 7.12 0 10-10.08 0 7.12 7.12 0 0010.08 0M272.89 261.17a7.21 7.21 0 10-10.2 0 7.21 7.21 0 0010.2 0M234.39 246.89L220 232.48a7.06 7.06 0 010-10l14.41-14.41a7.06 7.06 0 0110 0l14.41 14.41a7.06 7.06 0 010 10l-14.41 14.41a7.06 7.06 0 01-10.02 0z"/><path d="M433.31 839.63s-1.8 9.34-7.6 10.33c-6.85 1.16-28.68 5.49-24 10.91 5.06 5.85 43.55 5.68 48.14 1.37s-2.53-23.39-2.53-23.39z" fill="url(#linear-gradient-19)"/><path d="M505.47 163c-2.12 3-4.91-1.41-6.09-3.59 6.24 26-6.45 55.43-36.58 59.33-30.43 4-25-26-17.49-32a.82.82 0 011.32.71c-.22 2.67 1.42 10.2 9.07 5.94 10.53-5.84 7.86-16 6.6-18.53s-4.71-6.92-9.11-1.58c0 0-2.2 4.32-3.47 2.2-1.79-3 7.56-4.71 4.73-19.17 0 0-13.07 2.83-16.12-8.8 0 0-34.31 10.23-40.69-27.1s15.94-43.62 23.17-44.87 26.38 1.4 28.91 20.18 6.61 21 12.58 23.19 25.15 6.91 35.21 34.26c.47 1.3.91 2.61 1.28 3.92.15-3.52 1-12.23 6.07-9.34 5.63 3.22-3.76 9.32-5.74 10.54h-.26l.06.14c.09.18.26.53.49 1a20.8 20.8 0 00-.26-1.07c1.51.16 8.79 1.2 6.32 4.64z" fill="url(#linear-gradient-20)"/><path d="M505.47 163c-2.12 3-4.91-1.41-6.09-3.59 6.24 26-6.45 55.43-36.58 59.33-30.43 4-25-26-17.49-32a.82.82 0 011.32.71c-.22 2.67 1.42 10.2 9.07 5.94 10.53-5.84 7.86-16 6.6-18.53s-4.71-6.92-9.11-1.58c0 0-2.2 4.32-3.47 2.2-1.79-3 7.56-4.71 4.73-19.17 0 0-13.07 2.83-16.12-8.8 0 0-34.31 10.23-40.69-27.1s15.94-43.62 23.17-44.87 26.38 1.4 28.91 20.18 6.61 21 12.58 23.19 25.15 6.91 35.21 34.26c.47 1.3.91 2.61 1.28 3.92.15-3.52 1-12.23 6.07-9.34 5.63 3.22-3.76 9.32-5.74 10.54h-.26l.06.14c.09.18.26.53.49 1a20.8 20.8 0 00-.26-1.07c1.51.16 8.79 1.2 6.32 4.64z" fill="url(#linear-gradient-21)"/><path d="M499.38 159.42c-.23-.43-.4-.78-.49-1l-.06-.14h.26c.13.43.21.78.29 1.14z" fill="url(#linear-gradient-22)"/></g></g></svg>