<svg xmlns="http://www.w3.org/2000/svg" xmlns:xlink="http://www.w3.org/1999/xlink" viewBox="0 0 955.81 762.81">
  <defs>
    <style>
      .cls-1 {
        fill: #fff;
      }

      .cls-13, .cls-2, .cls-20, .cls-4 {
        opacity: 0.6;
      }

      .cls-3 {
        fill: url(#linear-gradient);
      }

      .cls-4 {
        fill: url(#linear-gradient-2);
      }

      .cls-5 {
        opacity: 0.63;
        fill: url(#radial-gradient);
      }

      .cls-6 {
        fill: #f8a06d;
      }

      .cls-7 {
        opacity: 0.29;
        fill: url(#linear-gradient-3);
      }

      .cls-8 {
        fill: #ffd2b8;
      }

      .cls-9 {
        fill: #170a51;
      }

      .cls-10 {
        fill: url(#linear-gradient-4);
      }

      .cls-11 {
        fill: url(#linear-gradient-5);
      }

      .cls-12 {
        fill: url(#linear-gradient-6);
      }

      .cls-13 {
        fill: url(#linear-gradient-7);
      }

      .cls-14 {
        fill: #2e184a;
        opacity: 0.18;
      }

      .cls-15 {
        fill: url(#linear-gradient-8);
      }

      .cls-16 {
        fill: url(#linear-gradient-9);
      }

      .cls-17 {
        fill: url(#linear-gradient-10);
      }

      .cls-18 {
        fill: url(#linear-gradient-11);
      }

      .cls-19 {
        fill: url(#linear-gradient-12);
      }

      .cls-20 {
        fill: url(#linear-gradient-13);
      }

      .cls-21 {
        opacity: 0.69;
        fill: url(#radial-gradient-2);
      }

      .cls-22 {
        opacity: 0.39;
        fill: url(#radial-gradient-3);
      }

      .cls-23 {
        fill: url(#linear-gradient-14);
      }

      .cls-24 {
        clip-path: url(#clip-path);
      }

      .cls-25 {
        fill: url(#linear-gradient-15);
      }

      .cls-26 {
        fill: url(#linear-gradient-16);
      }

      .cls-27 {
        fill: url(#linear-gradient-17);
      }

      .cls-28 {
        fill: url(#linear-gradient-18);
      }

      .cls-29 {
        fill: url(#linear-gradient-19);
      }
    </style>
    <linearGradient id="linear-gradient" x1="17.44" y1="240.04" x2="947.47" y2="375.48" gradientUnits="userSpaceOnUse">
      <stop offset="0" stop-color="#0212f2" stop-opacity="0"/>
      <stop offset="0.09" stop-color="#0819f2" stop-opacity="0.04"/>
      <stop offset="0.23" stop-color="#182cf3" stop-opacity="0.14"/>
      <stop offset="0.42" stop-color="#334bf4" stop-opacity="0.31"/>
      <stop offset="0.63" stop-color="#5875f5" stop-opacity="0.54"/>
      <stop offset="0.87" stop-color="#87abf6" stop-opacity="0.84"/>
      <stop offset="1" stop-color="#a1c9f7"/>
    </linearGradient>
    <linearGradient id="linear-gradient-2" x1="165.69" y1="761.5" x2="28.89" y2="431.97" gradientTransform="matrix(-0.98, 0.18, 0.18, 0.98, 247.47, -22.41)" gradientUnits="userSpaceOnUse">
      <stop offset="0" stop-color="#0212f2" stop-opacity="0"/>
      <stop offset="0.01" stop-color="#0717f2" stop-opacity="0.03"/>
      <stop offset="0.09" stop-color="#3d56f4" stop-opacity="0.37"/>
      <stop offset="0.17" stop-color="#6887f5" stop-opacity="0.64"/>
      <stop offset="0.24" stop-color="#87abf6" stop-opacity="0.83"/>
      <stop offset="0.28" stop-color="#9ac1f7" stop-opacity="0.96"/>
      <stop offset="0.31" stop-color="#a1c9f7"/>
      <stop offset="0.37" stop-color="#a6ccf7"/>
      <stop offset="0.45" stop-color="#b4d4f9"/>
      <stop offset="0.53" stop-color="#cce2fb"/>
      <stop offset="0.62" stop-color="#eef5fe"/>
      <stop offset="0.65" stop-color="#fff"/>
    </linearGradient>
    <radialGradient id="radial-gradient" cx="519.29" cy="700.8" r="514.94" gradientTransform="matrix(0, -1, 0.13, 0, 434.92, 1223.86)" gradientUnits="userSpaceOnUse">
      <stop offset="0.09" stop-color="#605ce8"/>
      <stop offset="0.91" stop-color="#f2f2fd" stop-opacity="0.03"/>
    </radialGradient>
    <linearGradient id="linear-gradient-3" x1="-4276.55" y1="198.23" x2="-4312.59" y2="213.63" gradientTransform="matrix(-1, 0, 0, 1, -3824.59, 0)" gradientUnits="userSpaceOnUse">
      <stop offset="0" stop-color="#2a0d63" stop-opacity="0"/>
      <stop offset="0.2" stop-color="#33167b" stop-opacity="0.22"/>
      <stop offset="0.59" stop-color="#4327a9" stop-opacity="0.64"/>
      <stop offset="0.87" stop-color="#4d31c6" stop-opacity="0.9"/>
      <stop offset="1" stop-color="#5135d1"/>
    </linearGradient>
    <linearGradient id="linear-gradient-4" x1="475.99" y1="-8.66" x2="376.03" y2="162.43" gradientUnits="userSpaceOnUse">
      <stop offset="0" stop-color="#3343bd"/>
      <stop offset="0.03" stop-color="#313fb6"/>
      <stop offset="0.21" stop-color="#282c92"/>
      <stop offset="0.39" stop-color="#201d76"/>
      <stop offset="0.57" stop-color="#1b1361"/>
      <stop offset="0.75" stop-color="#180c55"/>
      <stop offset="0.93" stop-color="#170a51"/>
    </linearGradient>
    <linearGradient id="linear-gradient-5" x1="-4181.26" y1="110.05" x2="-4180.21" y2="111.22" gradientTransform="matrix(-1, 0, 0, 1, -3824.59, 0)" gradientUnits="userSpaceOnUse">
      <stop offset="0" stop-color="#3343bd"/>
      <stop offset="0.17" stop-color="#2f3caf"/>
      <stop offset="0.5" stop-color="#26288a"/>
      <stop offset="0.93" stop-color="#170a51"/>
    </linearGradient>
    <linearGradient id="linear-gradient-6" x1="246.88" y1="162.11" x2="491.21" y2="529.28" gradientUnits="userSpaceOnUse">
      <stop offset="0.26" stop-color="#ff342d"/>
      <stop offset="0.4" stop-color="#fa352e"/>
      <stop offset="0.58" stop-color="#eb3630"/>
      <stop offset="0.78" stop-color="#d23933"/>
      <stop offset="0.98" stop-color="#af3d38"/>
      <stop offset="1" stop-color="#ac3d38"/>
    </linearGradient>
    <linearGradient id="linear-gradient-7" x1="599.15" y1="544.61" x2="715.31" y2="100.65" gradientUnits="userSpaceOnUse">
      <stop offset="0" stop-color="#0212f2" stop-opacity="0"/>
      <stop offset="0.01" stop-color="#0717f2" stop-opacity="0.03"/>
      <stop offset="0.08" stop-color="#3d56f4" stop-opacity="0.37"/>
      <stop offset="0.14" stop-color="#6887f5" stop-opacity="0.64"/>
      <stop offset="0.19" stop-color="#87abf6" stop-opacity="0.83"/>
      <stop offset="0.24" stop-color="#9ac1f7" stop-opacity="0.96"/>
      <stop offset="0.26" stop-color="#a1c9f7"/>
      <stop offset="0.7" stop-color="#fff"/>
    </linearGradient>
    <linearGradient id="linear-gradient-8" x1="777.35" y1="445.35" x2="632.9" y2="531.28" gradientTransform="matrix(1, 0, 0, 1, 0, 0)" xlink:href="#linear-gradient-5"/>
    <linearGradient id="linear-gradient-9" x1="488.73" y1="410.29" x2="552.32" y2="732.68" gradientUnits="userSpaceOnUse">
      <stop offset="0" stop-color="#3343bd"/>
      <stop offset="0.21" stop-color="#292f97"/>
      <stop offset="0.42" stop-color="#211f79"/>
      <stop offset="0.62" stop-color="#1c1363"/>
      <stop offset="0.82" stop-color="#180c55"/>
      <stop offset="1" stop-color="#170a51"/>
    </linearGradient>
    <linearGradient id="linear-gradient-10" x1="665.91" y1="353.42" x2="395.34" y2="708.75" gradientTransform="matrix(1, 0, 0, 1, 0, 0)" xlink:href="#linear-gradient-5"/>
    <linearGradient id="linear-gradient-11" x1="646.67" y1="706.08" x2="607.11" y2="755.53" gradientUnits="userSpaceOnUse">
      <stop offset="0" stop-color="#3c2568"/>
      <stop offset="1" stop-color="#2c1b4d"/>
    </linearGradient>
    <linearGradient id="linear-gradient-12" x1="715.88" y1="669.08" x2="693.52" y2="717.99" xlink:href="#linear-gradient-11"/>
    <linearGradient id="linear-gradient-13" x1="532.88" y1="321.42" x2="396.07" y2="-8.11" gradientTransform="matrix(1, 0, 0, 1, 0, 0)" xlink:href="#linear-gradient-2"/>
    <radialGradient id="radial-gradient-2" cx="604.23" cy="400.54" r="20.22" gradientTransform="matrix(1, 0.02, -0.03, 1.81, 16.31, -327.5)" gradientUnits="userSpaceOnUse">
      <stop offset="0" stop-color="#4a5acf"/>
      <stop offset="0.67" stop-color="#3c4cc4"/>
      <stop offset="1" stop-color="#3343bd"/>
    </radialGradient>
    <radialGradient id="radial-gradient-3" cx="688.94" cy="381.04" r="20.22" gradientTransform="matrix(1, 0.02, -0.03, 1.81, 15.68, -313.2)" xlink:href="#radial-gradient-2"/>
    <linearGradient id="linear-gradient-14" x1="669.25" y1="166.95" x2="658.26" y2="105.48" gradientTransform="translate(864.13 -496.83) rotate(90)" xlink:href="#linear-gradient-5"/>
    <clipPath id="clip-path">
      <path class="cls-1" d="M715.28,157.34a6.47,6.47,0,1,0-5.82-2.79,10.78,10.78,0,0,0-11.23,6c-2.57,5.36,16.86,14.65,19.42,9.29A10.77,10.77,0,0,0,715.28,157.34Z"/>
    </clipPath>
    <linearGradient id="linear-gradient-15" x1="938.37" y1="446.72" x2="8.34" y2="311.28" xlink:href="#linear-gradient"/>
    <linearGradient id="linear-gradient-16" x1="229.55" y1="349.44" x2="204.18" y2="207.62" gradientTransform="translate(64.33 -58.24) rotate(8.29)" xlink:href="#linear-gradient-5"/>
    <linearGradient id="linear-gradient-17" x1="144.68" y1="553.85" x2="133.67" y2="492.27" gradientTransform="translate(-87.18 -20.01) rotate(-5.44)" xlink:href="#linear-gradient-5"/>
    <linearGradient id="linear-gradient-18" x1="149.98" y1="615.58" x2="126.34" y2="483.45" gradientTransform="translate(-87.18 -20.01) rotate(-5.44)" xlink:href="#linear-gradient-5"/>
    <linearGradient id="linear-gradient-19" x1="865.15" y1="349.52" x2="922.73" y2="349.52" gradientTransform="matrix(0.98, -0.21, 0.21, 0.98, -84.15, 237.97)" xlink:href="#linear-gradient-5"/>
  </defs>
  <g id="Layer_2" data-name="Layer 2">
    <g id="Layer_1-2" data-name="Layer 1">
      <g>
        <g class="cls-2">
          <path class="cls-3" d="M.91,416.12c-2-11.14-.55-22.81,3.22-33.55A99.19,99.19,0,0,1,11.23,367a139.33,139.33,0,0,1,9.44-14.28,169.77,169.77,0,0,1,11-13.1c3.92-4.13,7.93-8.2,12.15-12a295.24,295.24,0,0,1,26.47-21.55,474.84,474.84,0,0,1,58.14-35.53c10-5.29,20.28-10.23,30.61-14.94s20.75-9.18,31.26-13.46q31.55-12.78,64-23.12t65.35-18.82q16.46-4.23,33.06-7.91t33.27-7c22.23-4.4,44.58-8.17,67-11.48A1325,1325,0,0,1,588.3,161.51q34-1.15,68-.37t67.9,4.15c22.57,2.31,45.09,5.36,67.37,9.81a476.85,476.85,0,0,1,65.8,17.7A297.77,297.77,0,0,1,888.85,206c5.13,2.48,10.12,5.26,15,8.12s9.67,6.05,14.25,9.47a140.35,140.35,0,0,1,13.08,11,99.88,99.88,0,0,1,11.2,12.93c6.64,9.25,11.34,20,12.54,31.29a62.88,62.88,0,0,0-5.16-16,72.56,72.56,0,0,0-8.95-14.11,99.64,99.64,0,0,0-11.53-12.07,137.12,137.12,0,0,0-13.26-10.14c-4.62-3.12-9.46-5.91-14.33-8.62s-9.91-5.12-15-7.35a291.18,291.18,0,0,0-31.37-11.73A474.94,474.94,0,0,0,790,183.48q-33.15-5.53-66.73-8.08c-11.17-.88-22.37-1.5-33.58-2s-22.41-.81-33.63-.92q-33.65-.37-67.29,1.28-67.26,3.06-134,12.85-66.69,9.45-132.2,25.43-32.72,7.93-64.92,17.75c-10.74,3.26-21.4,6.75-32,10.35s-21.19,7.35-31.66,11.34q-31.44,11.94-61.75,26.56a476.8,476.8,0,0,0-58.32,33.16,291.55,291.55,0,0,0-26.79,20.11c-4.28,3.58-8.35,7.4-12.35,11.29s-7.76,8-11.31,12.3a138.58,138.58,0,0,0-9.87,13.48A99.52,99.52,0,0,0,6,383.26a72.67,72.67,0,0,0-4.6,16.06A62.57,62.57,0,0,0,.91,416.12Z"/>
        </g>
        <path class="cls-1" d="M167.31,581.34c-3.13,44.18,63.93,34.36,55.92.83,20.63,46.79,107.09,28.51,100.77-18,14.1,32.35,78.91,8.82,56.05-26.53,51.74,17.88,35-53.84-1.53-24.43,18.79-25.26-15.5-42.79-27.22-17.84,1.25-26.68-53.27-39.81-61.07-8.29-.13-16-23.53-16.75-25.48,1.77,0-20.53-23.86-29.63-40.66-26.56-38.25,7-35.88,36.58-36.78,57-18.11-20.2-46.84,4-31.7,23-11.45-7.11-36,7.26-33.9,23.22C125.12,591.13,152.41,593.6,167.31,581.34Zm-8.09-35.44,0-.07.66.56C160.57,546.51,159.61,546.55,159.22,545.9Z"/>
        <path class="cls-4" d="M167.31,581.34c-3.13,44.18,63.93,34.36,55.92.83,20.63,46.79,107.09,28.51,100.77-18,14.1,32.35,78.91,8.82,56.05-26.53,51.74,17.88,35-53.84-1.53-24.43,18.79-25.26-15.5-42.79-27.22-17.84,1.25-26.68-53.27-39.81-61.07-8.29-.13-16-23.53-16.75-25.48,1.77,0-20.53-23.86-29.63-40.66-26.56-38.25,7-35.88,36.58-36.78,57-18.11-20.2-46.84,4-31.7,23-11.45-7.11-36,7.26-33.9,23.22C125.12,591.13,152.41,593.6,167.31,581.34Zm-8.09-35.44,0-.07.66.56C160.57,546.51,159.61,546.55,159.22,545.9Z"/>
        <ellipse class="cls-5" cx="522.9" cy="708.91" rx="50.39" ry="422.77" transform="translate(-209.06 1199.03) rotate(-87.39)"/>
        <g>
          <path class="cls-6" d="M492.49,263.41s-15.78-14.28-8.73-65.32c0,0,44.37-4,31.59-59.86s-72.06-78.09-72.06-78.09-81,37.62-57.58,87.78,33.35,77.57,10,94.75Z"/>
          <path class="cls-7" d="M445.49,185.91c15.89,9.94,25.89,15.17,45.4,10.55a36.06,36.06,0,0,1-7.13,1.63c-1.92,11.12-1.68,22.25-1.63,31.43C464.79,215.81,457.69,203.44,445.49,185.91Z"/>
          <path class="cls-8" d="M479.67,198.08h4.09s44.37-4,31.59-59.85-72.07-78.09-72.07-78.09h0c10.89,4.67,58.5,30,69.8,79.4C525.86,195.4,479.67,198.08,479.67,198.08Z"/>
          <path class="cls-9" d="M355.74,110.63l.26.15.09-.19Z"/>
          <path class="cls-9" d="M355.35,112.06c.31-.58.53-1,.65-1.28l.09-.19-.35,0h0C355.56,111.11,355.46,111.58,355.35,112.06Z"/>
          <path class="cls-10" d="M347.24,116.86c2.82,4,6.54-1.88,8.11-4.79-8.32,34.69,8.6,73.86,48.74,79.06,40.54,5.25,33.31-34.66,23.3-42.62a1.09,1.09,0,0,0-1.76,1c.29,3.55-1.89,13.58-12.08,7.92-14-7.78-10.47-21.35-8.8-24.7s6.28-9.22,12.14-2.1c0,0,2.94,5.75,4.63,2.94,2.38-4-10.07-6.29-6.3-25.55,0,0,17.41,3.77,21.47-11.73,0,0,45.71,13.64,54.21-36.1S469.66,2,460,.35s-35.14,1.87-38.51,26.89-8.81,28-16.77,30.9-33.5,9.21-46.91,45.65c-.63,1.73-1.21,3.47-1.7,5.22-.2-4.69-1.37-16.3-8.09-12.44-7.49,4.28,5,12.42,7.65,14l0,0,.35,0-.09.19c-.12.24-.34.7-.65,1.28.11-.48.21-1,.35-1.43C353.64,110.87,343.94,112.25,347.24,116.86Z"/>
          <path class="cls-11" d="M355.35,112.06c.31-.58.53-1,.65-1.28l.09-.19-.35,0,0,0v0C355.56,111.11,355.46,111.58,355.35,112.06Z"/>
        </g>
        <path class="cls-12" d="M324.82,608.48S645.31,550.8,646.75,445.39c1-71.56-28.56-48.12-28.56-48.12-20.77-55-93.48-170-172.32-170.28C308.24,226.46,246,408.89,260.53,534.11l47.89,34Z"/>
        <path class="cls-1" d="M563.52,353.25a54,54,0,0,0,103.09,10.42,42.62,42.62,0,0,0,28.68,10.67c15.83,0,29.47-8.07,35.87-19.73a34.49,34.49,0,1,0,4-63.46,42.71,42.71,0,0,0-70.49-45.09,62.79,62.79,0,0,0-112.34,56,27.1,27.1,0,0,0,11.18,51.17Z"/>
        <path class="cls-13" d="M563.52,353.25a54,54,0,0,0,103.09,10.42,42.62,42.62,0,0,0,28.68,10.67c15.83,0,29.47-8.07,35.87-19.73a34.49,34.49,0,1,0,4-63.46,42.71,42.71,0,0,0-70.49-45.09,62.79,62.79,0,0,0-112.34,56,27.1,27.1,0,0,0,11.18,51.17Z"/>
        <path class="cls-14" d="M353.83,527.77s0-76.4,22.72-165.12C362.65,466.5,374.32,522,374.32,522Z"/>
        <path class="cls-6" d="M429.08,445.21l-12.69,50.13C385.8,509.47,340.81,628.61,302,627.43c-16.54-.5-28.28-19.23-34.83-36.58-3-18.65-6-35.51-6-56.73l92.63-6.35S417.48,448.16,429.08,445.21Z"/>
        <path class="cls-15" d="M443.42,574.38l-37.79-40.27s15.19,118.67-100.3,83.78C347.15,726.43,504.12,700,556,658.23c21.33-17.18,88.72-108.42,88.72-108.42C664.88,538.63,665.4,679.7,665.4,679.7L688.46,681c83.68-317.79,1.9-335.63-31-335.63C566.47,345.35,443.42,574.38,443.42,574.38Z"/>
        <path class="cls-16" d="M588.21,507.86a192.73,192.73,0,0,0-9.91-23.92c-3.71-7.41-7.76-15.48-13.81-21.26-11.4-10.86-26.26-5.58-38.21,1.4a226.22,226.22,0,0,0-39.19,29.11c-2.35,2.18-4.59,4.45-6.77,6.78-22.52,42.56-36.9,74.41-36.9,74.41l-.62-.66c-8.86,39,33.36,83.19,39.46,122.68,31.06-5.27,50.49-19.45,73.74-38.17,9.58-7.71,29.34-34.12,48.22-60.88C602.83,567,598,536.54,588.21,507.86Z"/>
        <path class="cls-17" d="M616,705.27,592.9,704S560.38,537.2,544.27,537.2c0,0,21.06,106.93-29.73,147.41-52.07,41.51-198.12,37.2-239.94-71.33-2.58-6.72-5.1-14.24-7.44-22.43,6.55,17.35,22.94,31,37.79,23.7,39.68-19.48,103.81-143.14,103.81-143.14,40.53-54,92.3-107.88,137.62-107.88C579.32,363.53,691.71,372.13,616,705.27Z"/>
        <path class="cls-18" d="M616,705.27s3,15.35,12.49,17c11.25,1.91,48.19,16.41,40.46,25.33-8.32,9.6-72.62,1.92-80.17-5.16S592.9,704,592.9,704Z"/>
        <path class="cls-19" d="M689,678.82s3,15.35,12.49,17c11.25,1.91,44.11,16.41,36.39,25.33-8.33,9.6-68.55,1.92-76.1-5.16S666,677.53,666,677.53Z"/>
        <path class="cls-1" d="M596.51,115.57C595.72,99.48,569,89.77,559,98.81c11.49-21.39-21.13-40-35.31-16.89-4.55-19.89-7.54-49.44-46.42-49.43-17.08,0-38.91,13.24-35.22,33.43-5.26-17.87-28.13-12.93-25.39,2.84-13.33-29.61-64.61-6.9-58.59,19.13-16-22.44-46.59,1-23.56,22.44-41.25-22.37-44.8,51.19,2.87,24.3-16.13,38.89,51.85,50.38,59.91,16,2.15,46.94,90.49,49.39,102.37-.35-1.85,34.43,65.88,32,54.87-10.86C571.38,148.83,597.78,141.5,596.51,115.57Zm-40.93-11.84c.2-.23.37-.45.56-.68a.59.59,0,0,1,0,.08C555.84,103.84,554.88,104,555.58,103.73Z"/>
        <path class="cls-20" d="M596.51,115.57C595.72,99.48,569,89.77,559,98.81c11.49-21.39-21.13-40-35.31-16.89-4.55-19.89-7.54-49.44-46.42-49.43-17.08,0-38.91,13.24-35.22,33.43-5.26-17.87-28.13-12.93-25.39,2.84-13.33-29.61-64.61-6.9-58.59,19.13-16-22.44-46.59,1-23.56,22.44-41.25-22.37-44.8,51.19,2.87,24.3-16.13,38.89,51.85,50.38,59.91,16,2.15,46.94,90.49,49.39,102.37-.35-1.85,34.43,65.88,32,54.87-10.86C571.38,148.83,597.78,141.5,596.51,115.57Zm-40.93-11.84c.2-.23.37-.45.56-.68a.59.59,0,0,1,0,.08C555.84,103.84,554.88,104,555.58,103.73Z"/>
        <ellipse class="cls-21" cx="593.35" cy="409.27" rx="25.88" ry="41.2" transform="translate(-125.85 457.41) rotate(-38.43)"/>
        <ellipse class="cls-22" cx="678.05" cy="389.77" rx="25.88" ry="41.2" transform="translate(-95.38 505.83) rotate(-38.43)"/>
        <g>
          <rect class="cls-23" x="702.04" y="129.31" width="51.75" height="75.23" rx="5.41" transform="translate(263.23 751.56) rotate(-64.44)"/>
          <g>
            <path class="cls-1" d="M715.28,157.34a6.47,6.47,0,1,0-5.82-2.79,10.78,10.78,0,0,0-11.23,6c-2.57,5.36,16.86,14.65,19.42,9.29A10.77,10.77,0,0,0,715.28,157.34Z"/>
            <g class="cls-24">
              <polygon class="cls-1" points="713.94 174.68 715.18 175.02 715.09 175.22 713.94 174.68"/>
              <polygon class="cls-1" points="710.95 173.25 715.44 174.48 715.18 175.02 713.94 174.68 710.95 173.25"/>
              <polygon class="cls-1" points="707.97 171.82 715.69 173.95 715.44 174.48 710.95 173.25 707.97 171.82"/>
              <polygon class="cls-1" points="704.98 170.39 715.95 173.41 715.69 173.95 707.97 171.82 704.98 170.39"/>
              <polygon class="cls-1" points="701.99 168.96 716.21 172.88 715.95 173.41 704.98 170.39 701.99 168.96"/>
              <polygon class="cls-1" points="699 167.53 716.46 172.34 716.21 172.88 701.99 168.96 699 167.53"/>
              <polygon class="cls-1" points="696.01 166.1 716.72 171.81 716.46 172.34 699 167.53 696.01 166.1"/>
              <polygon class="cls-1" points="695.89 165.46 716.97 171.28 716.72 171.81 696.01 166.1 695.66 165.93 695.89 165.46"/>
              <polygon class="cls-1" points="696.14 164.93 717.23 170.74 716.97 171.28 695.89 165.46 696.14 164.93"/>
              <polygon class="cls-1" points="696.4 164.39 717.48 170.21 717.23 170.74 696.14 164.93 696.4 164.39"/>
              <polygon class="cls-1" points="696.66 163.86 717.74 169.67 717.48 170.21 696.4 164.39 696.66 163.86"/>
              <polygon class="cls-1" points="696.91 163.32 718 169.14 717.74 169.67 696.66 163.86 696.91 163.32"/>
              <polygon class="cls-1" points="697.17 162.79 718.25 168.6 718 169.14 696.91 163.32 697.17 162.79"/>
              <polygon class="cls-1" points="697.42 162.25 718.51 168.07 718.25 168.6 697.17 162.79 697.42 162.25"/>
              <polygon class="cls-1" points="697.68 161.72 718.76 167.53 718.51 168.07 697.42 162.25 697.68 161.72"/>
              <polygon class="cls-1" points="697.93 161.18 719.02 167 718.76 167.53 697.68 161.72 697.93 161.18"/>
              <polygon class="cls-1" points="698.19 160.65 719.27 166.47 719.02 167 697.93 161.18 698.19 160.65"/>
              <polygon class="cls-1" points="698.45 160.11 719.53 165.93 719.27 166.47 698.19 160.65 698.45 160.11"/>
              <polygon class="cls-1" points="698.7 159.58 719.78 165.4 719.53 165.93 698.45 160.11 698.7 159.58"/>
              <polygon class="cls-1" points="698.96 159.04 720.04 164.86 719.78 165.4 698.7 159.58 698.96 159.04"/>
              <polygon class="cls-1" points="699.21 158.51 720.3 164.33 720.04 164.86 698.96 159.04 699.21 158.51"/>
              <polygon class="cls-1" points="699.47 157.98 720.55 163.79 720.3 164.33 699.21 158.51 699.47 157.98"/>
              <polygon class="cls-1" points="699.72 157.44 720.81 163.26 720.55 163.79 699.47 157.98 699.72 157.44"/>
              <polygon class="cls-1" points="699.98 156.91 721 162.7 720.89 163.08 720.81 163.26 699.72 157.44 699.98 156.91"/>
              <polygon class="cls-1" points="700.24 156.37 721.15 162.14 721 162.7 699.98 156.91 700.24 156.37"/>
              <polygon class="cls-1" points="700.49 155.84 721.31 161.58 721.15 162.14 700.24 156.37 700.49 155.84"/>
              <polygon class="cls-1" points="700.75 155.3 721.46 161.02 721.31 161.58 700.49 155.84 700.75 155.3"/>
              <polygon class="cls-1" points="701 154.77 721.62 160.46 721.46 161.02 700.75 155.3 701 154.77"/>
              <polygon class="cls-1" points="701.26 154.23 721.77 159.89 721.62 160.46 701 154.77 701.26 154.23"/>
              <polygon class="cls-1" points="701.51 153.7 721.93 159.33 721.77 159.89 701.26 154.23 701.51 153.7"/>
              <polygon class="cls-1" points="701.77 153.16 722.08 158.77 721.93 159.33 701.51 153.7 701.77 153.16"/>
              <polygon class="cls-1" points="702.03 152.63 722.24 158.21 722.08 158.77 701.77 153.16 702.03 152.63"/>
              <polygon class="cls-1" points="702.28 152.1 722.39 157.64 722.24 158.21 702.03 152.63 702.28 152.1"/>
              <polygon class="cls-1" points="702.54 151.56 722.55 157.08 722.39 157.64 702.28 152.1 702.54 151.56"/>
              <polygon class="cls-1" points="702.79 151.03 722.7 156.52 722.55 157.08 702.54 151.56 702.79 151.03"/>
              <polygon class="cls-1" points="703.05 150.49 722.86 155.96 722.7 156.52 702.79 151.03 703.05 150.49"/>
              <polygon class="cls-1" points="703.3 149.96 723.01 155.4 722.86 155.96 703.05 150.49 703.3 149.96"/>
              <polygon class="cls-1" points="703.56 149.42 723.17 154.83 723.01 155.4 703.3 149.96 703.56 149.42"/>
              <polygon class="cls-1" points="703.82 148.89 723.32 154.27 723.17 154.83 703.56 149.42 703.82 148.89"/>
              <polygon class="cls-1" points="704.07 148.35 723.48 153.71 723.32 154.27 703.82 148.89 704.07 148.35"/>
              <polygon class="cls-1" points="704.33 147.82 723.63 153.15 723.48 153.71 704.07 148.35 704.33 147.82"/>
              <polygon class="cls-1" points="704.58 147.28 723.79 152.58 723.63 153.15 704.33 147.82 704.58 147.28"/>
              <polygon class="cls-1" points="704.84 146.75 723.94 152.02 723.79 152.58 704.58 147.28 704.84 146.75"/>
              <polygon class="cls-1" points="705.09 146.22 724.1 151.46 723.94 152.02 704.84 146.75 705.09 146.22"/>
              <polygon class="cls-1" points="705.35 145.68 724.25 150.9 724.1 151.46 705.09 146.22 705.35 145.68"/>
              <polygon class="cls-1" points="705.61 145.15 724.41 150.33 724.25 150.9 705.35 145.68 705.61 145.15"/>
              <polygon class="cls-1" points="705.86 144.61 724.56 149.77 724.41 150.33 705.61 145.15 705.86 144.61"/>
              <polygon class="cls-1" points="706.12 144.08 724.72 149.21 724.56 149.77 705.86 144.61 706.12 144.08"/>
              <polygon class="cls-1" points="706.37 143.54 724.87 148.65 724.72 149.21 706.12 144.08 706.37 143.54"/>
              <polygon class="cls-1" points="706.63 143.01 722.43 147.37 724.9 148.55 724.87 148.65 706.37 143.54 706.63 143.01"/>
              <polygon class="cls-1" points="706.88 142.47 719.44 145.94 722.43 147.37 706.63 143.01 706.88 142.47"/>
              <polygon class="cls-1" points="707.14 141.94 716.45 144.51 719.44 145.94 706.88 142.47 707.14 141.94"/>
              <polygon class="cls-1" points="707.39 141.41 713.46 143.08 716.45 144.51 707.14 141.94 707.39 141.41"/>
              <polygon class="cls-1" points="707.65 140.87 710.48 141.65 713.46 143.08 707.39 141.41 707.65 140.87"/>
              <polygon class="cls-1" points="710.48 141.65 707.65 140.87 707.87 140.41 710.48 141.65"/>
            </g>
          </g>
          <path class="cls-1" d="M759.89,166.07,734.2,153.79a1.19,1.19,0,1,1,1-2.14l25.69,12.28a1.19,1.19,0,0,1-1,2.14Z"/>
          <path class="cls-1" d="M756.35,173.47l-25.69-12.29a1.17,1.17,0,0,1-.55-1.58,1.19,1.19,0,0,1,1.58-.56l25.68,12.29a1.19,1.19,0,0,1-1,2.14Z"/>
          <path class="cls-1" d="M752.81,180.86l-25.68-12.28a1.19,1.19,0,1,1,1-2.14l25.68,12.29a1.18,1.18,0,1,1-1,2.13Z"/>
          <path class="cls-1" d="M749.27,188.26,723.59,176a1.19,1.19,0,0,1-.56-1.58,1.17,1.17,0,0,1,1.58-.55l25.69,12.28a1.17,1.17,0,0,1,.55,1.58A1.19,1.19,0,0,1,749.27,188.26Z"/>
          <path class="cls-1" d="M745.89,195.33l-52.32-25a1.17,1.17,0,0,1-.55-1.58,1.19,1.19,0,0,1,1.58-.56l52.32,25a1.17,1.17,0,0,1,.55,1.58A1.19,1.19,0,0,1,745.89,195.33Z"/>
        </g>
        <g class="cls-2">
          <path class="cls-25" d="M954.9,270.63c2,11.14.54,22.81-3.22,33.56a99.61,99.61,0,0,1-7.1,15.56A142.71,142.71,0,0,1,935.14,334c-3.43,4.56-7.15,8.9-11,13.1s-7.93,8.2-12.15,12a295.49,295.49,0,0,1-26.48,21.56,475.8,475.8,0,0,1-58.14,35.53c-10,5.29-20.28,10.22-30.6,14.93s-20.76,9.19-31.26,13.46q-31.54,12.78-64,23.13t-65.35,18.81q-16.45,4.24-33.06,7.92t-33.27,7c-22.23,4.4-44.58,8.17-67,11.48A1322.05,1322.05,0,0,1,367.5,525.24q-34,1.17-68,.37t-67.9-4.15c-22.57-2.3-45.09-5.36-67.37-9.8A476.85,476.85,0,0,1,98.43,494,294.89,294.89,0,0,1,67,480.73c-5.13-2.48-10.12-5.25-15-8.11s-9.68-6.05-14.25-9.47a140.59,140.59,0,0,1-13.08-11,98.37,98.37,0,0,1-11.2-12.93C6.74,429.93,2,419.15.83,407.89a63.08,63.08,0,0,0,5.16,16A72.47,72.47,0,0,0,15,438a98.11,98.11,0,0,0,11.52,12.07,137.35,137.35,0,0,0,13.27,10.15c4.62,3.12,9.45,5.91,14.32,8.61s9.92,5.12,15,7.35a289.67,289.67,0,0,0,31.37,11.74,474.26,474.26,0,0,0,65.3,15.37q33.15,5.54,66.72,8.08c11.18.87,22.38,1.49,33.58,1.95s22.42.81,33.64.92q33.65.38,67.29-1.29,67.25-3,134-12.84,66.68-9.45,132.2-25.44,32.7-7.94,64.92-17.74c10.73-3.26,21.39-6.75,32-10.35s21.19-7.35,31.67-11.34q31.44-11.94,61.74-26.56a475.32,475.32,0,0,0,58.32-33.16,290.33,290.33,0,0,0,26.8-20.11C913,351.82,917,348,921,344.11s7.76-8,11.31-12.31a138.45,138.45,0,0,0,9.87-13.47,99.47,99.47,0,0,0,7.65-14.83,72.78,72.78,0,0,0,4.61-16.07A63,63,0,0,0,954.9,270.63Z"/>
        </g>
        <path class="cls-26" d="M248.52,225.7a13.77,13.77,0,1,0-13.58-2,22.91,22.91,0,0,0-19,19.32c-1.83,12.52,43.5,19.12,45.33,6.6A22.92,22.92,0,0,0,248.52,225.7Z"/>
        <g>
          <path class="cls-27" d="M124.05,470.48,96.94,492.21,69.31,474.09a8.38,8.38,0,0,1,1.6-.3l47.9-4.56A8.18,8.18,0,0,1,124.05,470.48Z"/>
          <path class="cls-28" d="M127.92,476.75l2.84,29.85a8.34,8.34,0,0,1-7.53,9.1l-47.9,4.56a8.35,8.35,0,0,1-9.11-7.52L63.38,482.9a8.26,8.26,0,0,1,2.13-6.39l30.44,20a2.1,2.1,0,0,0,1.31.32,2.16,2.16,0,0,0,1.1-.44l28.53-22.88A8.15,8.15,0,0,1,127.92,476.75Z"/>
        </g>
        <path class="cls-29" d="M845.42,365c2.74.66,3.93,2.55,4.66,5.17a52.56,52.56,0,0,0,3.08,7.79,5.71,5.71,0,0,1,.09,5.47,56.18,56.18,0,0,0-2.68,5.92,2.46,2.46,0,0,0,.33,2.11,34.45,34.45,0,0,0,17,10.93,2.5,2.5,0,0,0,2-.59,54,54,0,0,0,4.38-5.06,5.14,5.14,0,0,1,4.32-2c3.3-.12,6.62-.13,9.9-.53a6.16,6.16,0,0,1,5.71,2.19L897,409.14a5.37,5.37,0,0,1-5.3,4.64c-4.19.3-8.4.9-12.58.74-22.93-.86-43.3-17.88-48.57-40.24-.66-2.78-.15-4.87,2.14-6.53Z"/>
      </g>
    </g>
  </g>
</svg>
