<svg xmlns="http://www.w3.org/2000/svg" xmlns:xlink="http://www.w3.org/1999/xlink" viewBox="0 0 531.28 803.79"><defs><linearGradient id="linear-gradient" x1="413.7" y1="503.98" x2="279.83" y2="621.12" gradientUnits="userSpaceOnUse"><stop offset="0" stop-color="#3343bd"/><stop offset=".17" stop-color="#2f3caf"/><stop offset=".5" stop-color="#26288a"/><stop offset=".93" stop-color="#170a51"/></linearGradient><linearGradient id="linear-gradient-2" x1="70.55" y1="530.35" x2="198.48" y2="638.6" xlink:href="#linear-gradient"/><linearGradient id="linear-gradient-3" x1="350.01" y1="40.85" x2="351.99" y2="130.73" gradientUnits="userSpaceOnUse"><stop offset="0" stop-color="#384de2"/><stop offset=".19" stop-color="#374ade"/><stop offset=".4" stop-color="#323fd1"/><stop offset=".62" stop-color="#2b2fbb"/><stop offset=".84" stop-color="#21179d"/><stop offset=".93" stop-color="#1c0c8f"/></linearGradient><linearGradient id="linear-gradient-4" x1="246.36" y1="286.43" x2="457.39" y2="129.05" xlink:href="#linear-gradient-3"/><linearGradient id="linear-gradient-5" x1="194.87" y1="323.81" x2="373.5" y2="195.09" gradientUnits="userSpaceOnUse"><stop offset="0" stop-color="#4767f5"/><stop offset=".11" stop-color="#4666f4" stop-opacity=".98"/><stop offset=".24" stop-color="#4363f0" stop-opacity=".93"/><stop offset=".37" stop-color="#3e5de9" stop-opacity=".85"/><stop offset=".51" stop-color="#3755e0" stop-opacity=".74"/><stop offset=".65" stop-color="#2f4bd4" stop-opacity=".59"/><stop offset=".79" stop-color="#243fc6" stop-opacity=".42"/><stop offset=".81" stop-color="#233ec4" stop-opacity=".4"/></linearGradient><linearGradient id="linear-gradient-6" x1="294.95" y1="210.13" x2="353.47" y2="210.13" gradientUnits="userSpaceOnUse"><stop offset=".32" stop-color="#233ec4"/><stop offset=".47" stop-color="#203cc0"/><stop offset=".62" stop-color="#1937b4"/><stop offset=".76" stop-color="#0b2fa1"/><stop offset=".85" stop-color="#012891"/></linearGradient><linearGradient id="linear-gradient-7" x1="-4584.35" y1="267.7" x2="-4603.72" y2="275.98" gradientTransform="matrix(-1 0 0 1 -4302.7 0)" gradientUnits="userSpaceOnUse"><stop offset="0" stop-color="#2a0d63" stop-opacity="0"/><stop offset=".2" stop-color="#33167b" stop-opacity=".22"/><stop offset=".59" stop-color="#4327a9" stop-opacity=".64"/><stop offset=".87" stop-color="#4d31c6" stop-opacity=".9"/><stop offset="1" stop-color="#5135d1"/></linearGradient><linearGradient id="linear-gradient-8" x1="300.9" y1="243.92" x2="249.59" y2="157.54" gradientUnits="userSpaceOnUse"><stop offset="0" stop-color="#3343bd"/><stop offset=".03" stop-color="#313fb6"/><stop offset=".21" stop-color="#282c92"/><stop offset=".39" stop-color="#201d76"/><stop offset=".57" stop-color="#1b1361"/><stop offset=".75" stop-color="#180c55"/><stop offset=".93" stop-color="#170a51"/></linearGradient><linearGradient id="linear-gradient-9" x1="-4473.7" y1="199.46" x2="-4473.07" y2="200.15" gradientTransform="matrix(-.98 -.19 -.19 .98 -4100.94 -842.54)" xlink:href="#linear-gradient"/><linearGradient id="linear-gradient-10" x1="72.24" y1="281.43" x2="157.48" y2="331.77" gradientTransform="rotate(11.06 147.605 620.572)" gradientUnits="userSpaceOnUse"><stop offset="0" stop-color="#ff342d"/><stop offset=".2" stop-color="#fa352e"/><stop offset=".43" stop-color="#eb3630"/><stop offset=".7" stop-color="#d23933"/><stop offset=".98" stop-color="#af3d38"/><stop offset="1" stop-color="#ac3d38"/></linearGradient><linearGradient id="linear-gradient-11" x1="361.18" y1="295.41" x2="257.03" y2="332.05" xlink:href="#linear-gradient-10"/><linearGradient id="linear-gradient-12" x1="-4357.2" y1="420.54" x2="-4153.54" y2="363.07" gradientTransform="matrix(-1 0 0 1 -3954.51 0)" xlink:href="#linear-gradient-10"/><radialGradient id="radial-gradient" cx="281.32" cy="782.02" r="442.47" gradientTransform="matrix(.7 0 0 .04 60.29 749.5)" gradientUnits="userSpaceOnUse"><stop offset="0" stop-color="#605ce8"/><stop offset=".91" stop-color="#f2f2fd" stop-opacity=".03"/></radialGradient><style>.cls-4{fill:#170a51}.cls-9{fill:#f8a06d}.cls-15{fill:#2e184a;opacity:.27}.cls-18{fill:#3c2568}</style></defs><g id="Layer_2" data-name="Layer 2"><g id="Layer_1-2" data-name="Layer 1"><path d="M531.28 782.08c0 12-195.46 21.71-314.94 21.71S0 794.07 0 782.08s96.86-21.71 216.34-21.71 314.94 9.72 314.94 21.71z" opacity=".63" fill="url(#radial-gradient)"/><path d="M378.93 486.78c-2.59 3-162.31-40-201.45-46-39.06 78.45-54.81 302.13-50.08 317.8l10.9 2.18s100.38-89.89 130.54-206.59c41 119.49 151.47 206.57 151.47 206.57l10.94-2.16c2.2-18.32-25.02-194.45-52.32-271.8z" fill="url(#linear-gradient)"/><path d="M177.48 440.75c-.41 18.65 6.91 79.46 91.38 113.39C238.7 670.85 138.3 760.73 138.3 760.73l-10.9-2.18c-4.4-24.39 11.02-239.35 50.08-317.8z" fill="url(#linear-gradient-2)"/><path class="cls-4" d="M435.47 42.15c-15-24.82-37.11-39.7-62.14-41.87s-49.85 8.6-69.86 30.38c-19.56 21.28-32.22 50.63-35.64 82.65s2.8 63 17.5 87.28c8.1 13.36 18.23 23.83 29.76 31l7.34-18.05c-26.07-17.45-41.74-55.89-37.17-98.71 2.94-27.55 13.7-52.67 30.31-70.74 16.16-17.58 35.94-26.32 55.7-24.6 2 .18 4 .46 5.9.83 38.23 7.48 64.08 54.12 58.38 107.59-5.58 52.27-39.37 92.91-77.42 95.42l1.74 19.15c20.73-1.72 40.77-12.23 57.46-30.4 19.57-21.28 32.22-50.63 35.64-82.65s-2.8-63.01-17.5-87.28z"/><path d="M426.85 42.15c-15-24.82-37.11-39.7-62.14-41.87s-49.85 8.6-69.86 30.38c-19.56 21.28-32.22 50.63-35.63 82.65s2.79 63 17.5 87.28c9.32 15.39 21.35 26.95 35.11 34l7.28-17.91c-29.21-15.57-47.34-56.24-42.47-101.89 2.94-27.55 13.7-52.67 30.31-70.74 16.16-17.58 35.95-26.32 55.71-24.6q3 .27 5.89.83c38.23 7.48 64.08 54.12 58.38 107.59-5.26 49.26-35.58 88.2-70.9 94.62l1.74 19.12c18.39-3.18 36-13.31 51-29.57 19.56-21.28 32.22-50.63 35.63-82.65s-2.85-62.97-17.55-87.24z" fill="url(#linear-gradient-3)"/><path class="cls-4" d="M464.6 113.21L261.37 82.6a25.7 25.7 0 00-29.25 21.59l-28.24 187.48a25.7 25.7 0 0021.59 29.25l203.23 30.61a25.7 25.7 0 0029.3-21.59l28.24-187.47a25.71 25.71 0 00-21.64-29.26zm-85.26 68.7a33.79 33.79 0 01-22.52 27l7 77.2-66.82-9.94 29.18-71.81a33.8 33.8 0 1153.18-22.45z"/><path d="M457.12 112.39L258.74 82.51c-13.71-2.07-26.53 7.64-28.65 21.68l-28.24 187.48c-2.11 14 7.28 27.09 21 29.16l198.38 29.88c13.71 2.07 26.53-7.64 28.65-21.68l28.24-187.48c2.1-14.04-7.29-27.09-21-29.16zm-79.81 69.52a33.78 33.78 0 01-22.51 27l7 77.2-66.8-9.94 29.17-71.81a33.8 33.8 0 1153.18-22.45z" fill="url(#linear-gradient-4)"/><path d="M359.86 264.6l1.95 21.52-66.81-9.95 24.8-61.06c-28.98-43.3-60.45-132.51-60.45-132.51a25.71 25.71 0 00-29.26 21.59l-28.24 187.48a25.71 25.71 0 0021.59 29.25l203.23 30.61a25.72 25.72 0 0028.38-17.74 338.53 338.53 0 01-95.19-69.19z" opacity=".28" fill="url(#linear-gradient-5)"/><path d="M330.45 205.6l-29.06 71.53-6.44-1 29.18-71.81a33.79 33.79 0 0124.72-60.85 31.61 31.61 0 014.62 1 33.8 33.8 0 00-23 61.07z" fill="url(#linear-gradient-6)"/><path class="cls-4" d="M330.45 205.6l-29.06 71.53-6.44-1 29.18-71.81a33.79 33.79 0 0124.72-60.85 31.61 31.61 0 014.62 1 33.8 33.8 0 00-23 61.07z"/><path class="cls-9" d="M308.91 311.81s-15.5-3.6-9.05-40.93c0 0 26.41-2.37 18.8-35.62s-42.89-46.49-42.89-46.49-48.18 22.4-34.27 52.23 20.9 43.5 7 53.72z"/><path d="M277.08 263.64c9.46 5.91 15.41 9 27 6.28a21.88 21.88 0 01-4.25 1 90.53 90.53 0 00-1.36 11.41c-10.29-8.21-14.13-8.26-21.39-18.69z" opacity=".29" fill="url(#linear-gradient-7)"/><path d="M297.43 270.88h2.43s26.41-2.37 18.8-35.62-42.89-46.49-42.89-46.49c6.48 2.79 34.82 17.87 41.54 47.27 7.61 33.25-19.88 34.84-19.88 34.84z" fill="#ffd2b8"/><path class="cls-4" d="M250.71 212l.14.12a.51.51 0 01.07-.1z"/><path class="cls-4" d="M250.32 212.8c.25-.3.43-.55.53-.67a.51.51 0 01.07-.1h-.21c-.16.24-.27.5-.39.77z"/><path d="M299 148.13c-5.73-1-20.91 1.11-22.92 16s-5.24 16.64-10 18.39-19.96 5.48-27.94 27.18c-.38 1-.72 2.06-1 3.11-.13-2.79-.82-9.7-4.82-7.41-4.46 2.55 3 7.39 4.56 8.36h.2a.82.82 0 010 .11c-.08.14-.21.42-.4.76.07-.29.13-.56.22-.85-1.23.14-7 1-5 3.71 1.68 2.35 3.89-1.12 4.82-2.85-2.9 12.13 0 21.94 6.6 34.5l12.35 27s-.24-14.86 11.72-14.27l.83.06h.2a5.63 5.63 0 00.9 0c20.09.39 15.94-21.14 10.3-25.63a.65.65 0 00-1.05.56c.17 2.12-1.13 8.09-7.19 4.71a11.17 11.17 0 01-5.24-14.69c1-2 3.74-5.49 7.23-1.25 0 0 1.75 3.42 2.75 1.74 1.42-2.38-6-3.74-3.75-15.2 0 0 10.37 2.24 12.78-7 0 0 27.21 8.12 32.27-21.48S304.7 149.13 299 148.13z" fill="url(#linear-gradient-8)"/><path d="M250.32 212.8c.25-.3.43-.55.53-.67a.51.51 0 01.07-.1h-.21c-.16.24-.27.5-.39.77z" fill="url(#linear-gradient-9)"/><path class="cls-9" d="M122.18 284.43c18-24.42 74.41-26.23 74.41-26.23a7.42 7.42 0 004.93-6.5v-3.06a14 14 0 013.47-9.38l3.2-3.66a1.44 1.44 0 012 1.4l-1.47 23.8a14.42 14.42 0 01-7.49 11.76s-50.23 20.89-48.12 40.38c.74 6.83-41.79-13.8-30.93-28.51zM422.39 399.51s33.39-25.59 38.64-38.35c9.48-23.05 2.41-61.71 2.34-63.38-.15-4 3.07-15 4.48-17.85 1.95-3.93-6.19.65-8.19 4.67-2.21 4.44-4.38 4.62-4.84 1.89s-5.78 4.28-1.49 13.72c3.91 35.66-16.09 45.83-16.09 45.83z"/><path d="M258.5 291.87c-80.16 33-97.42 17.58-110.88 9.87-12.21-7-18.59-12.11-25.44-17.31 0 0-57.55 74.44 58.3 87.35C288.31 383.8 282.42 282 258.5 291.87z" fill="url(#linear-gradient-10)"/><path class="cls-15" d="M182.75 372c-.76-.07 27.45-52.83 52.63-71.33 3.15-2.32 19.18-7.19 23.13-8.82h.06c.65-.2 1.31-.38 2-.55 21.93-3.41 24.56 90.76-77.82 80.7z"/><path d="M302.8 299.41c61.82 60.77 89 55.15 104.34 53.08 13.95-1.88 21.79-4.21 30.1-6.45 0 0 24.84 82.81-91.8 59.54-106.44-21.23-61.08-124.3-42.64-106.17z" fill="url(#linear-gradient-11)"/><path class="cls-15" d="M363.32 408.48c-2.18-.37-15.59-2.44-17.88-2.9C239 384.35 302.79 299.41 302.8 299.41c21.41 17.46 48.67 57.48 60.52 109.07z"/><path d="M177.48 440.75c58.08 30.89 135.41 65.42 201.45 46-1.88-1.06-29.78-175-90.2-196.32-56.8-20.04-98.64 53.76-111.25 150.32z" fill="url(#linear-gradient-12)"/><path class="cls-18" d="M468.22 776.58l-25.56-8.4-11.41-9.63-10.94 2.16 4.34 10.68 1.51 6.33a5.68 5.68 0 005.52 4.36H467a2.89 2.89 0 001.22-5.5zM90.4 776.58l25.56-8.4 11.4-9.63 10.94 2.16-4.3 10.68-1.51 6.33a5.67 5.67 0 01-5.52 4.36H91.63a2.89 2.89 0 01-1.23-5.5z"/></g></g></svg>