<?xml version="1.0" encoding="utf-8"?>
<!-- Generator: Adobe Illustrator 25.0.0, SVG Export Plug-In . SVG Version: 6.00 Build 0)  -->
<svg version="1.1" xmlns="http://www.w3.org/2000/svg" xmlns:xlink="http://www.w3.org/1999/xlink" x="0px" y="0px"
	 viewBox="0 0 1228.87 178.05" style="enable-background:new 0 0 1228.87 178.05;" xml:space="preserve">
<style type="text/css">
	.st0{fill:#FFFFFF;}
	.st1{fill:#2F3133;}
	.st2{fill:#00A0F3;}
	.st3{fill:#170A51;}
	.st4{display:none;}
	.st5{display:inline;fill:#E6E6E6;}
</style>
<g id="Layer_1">
	<g>
		<g>
			<path class="st2" d="M178.07,89.12c0-7.03-5.7-12.72-12.72-12.72c-7.03,0-12.72,5.7-12.72,12.72c0,7.03,5.7,12.72,12.72,12.72
				C172.38,101.85,178.07,96.15,178.07,89.12"/>
			<path class="st2" d="M25.45,89.06c0-7.03-5.7-12.72-12.72-12.72S0,82.04,0,89.06c0,7.03,5.7,12.72,12.72,12.72
				S25.45,96.09,25.45,89.06"/>
			<path class="st2" d="M88.93,25.45c7.03,0,12.72-5.7,12.72-12.72S95.96,0,88.93,0C81.9,0,76.21,5.7,76.21,12.72
				S81.9,25.45,88.93,25.45"/>
			<path class="st2" d="M89.01,178.05c7.03,0,12.72-5.7,12.72-12.72c0-7.03-5.7-12.72-12.72-12.72c-7.03,0-12.72,5.7-12.72,12.72
				C76.29,172.35,81.98,178.05,89.01,178.05"/>
			<path class="st2" d="M148.9,29.17c-4.97-4.97-13.03-4.97-17.99,0c-4.97,4.97-4.97,13.03,0,17.99c4.97,4.97,13.03,4.97,17.99,0
				C153.87,42.2,153.87,34.14,148.9,29.17"/>
			<path class="st2" d="M47.19,130.96c-4.97-4.97-13.03-4.97-17.99,0c-4.97,4.97-4.97,13.03,0,17.99c4.97,4.97,13.03,4.97,17.99,0
				C52.16,143.99,52.16,135.93,47.19,130.96"/>
			<path class="st2" d="M47.11,47.04c4.97-4.97,4.97-13.02,0-17.99c-4.97-4.97-13.03-4.97-17.99,0c-4.97,4.97-4.97,13.03,0,17.99
				C34.08,52.01,42.14,52.01,47.11,47.04"/>
			<path class="st2" d="M148.88,149.25c5.03-5.03,5.03-13.18,0-18.21c-5.03-5.03-13.18-5.03-18.21,0c-5.03,5.03-5.03,13.18,0,18.21
				C135.7,154.27,143.86,154.27,148.88,149.25"/>
			<path class="st3" d="M80.14,123.75L54.41,98.02c-4.91-4.91-4.91-12.88,0-17.8L80.14,54.5c4.91-4.91,12.88-4.91,17.8,0
				l25.73,25.73c4.91,4.91,4.91,12.88,0,17.8l-25.73,25.73C93.02,128.66,85.05,128.66,80.14,123.75z"/>
		</g>
		<g>
			<path class="st3" d="M253.77,126.94L234.9,51.58h18.3l11.07,54.57l13.22-52.54h15.48l13.33,52.54l10.96-54.57h17.63l-19.21,75.36
				h-17.97l-12.88-49.26l-13.1,49.26H253.77z"/>
			<path class="st3" d="M343.37,66.15V51.58h17.4v14.58H343.37z M343.94,126.94V73.95h16.27v52.99H343.94z"/>
			<path class="st3" d="M377.72,106.72v-20h-8.36V73.95h8.36v-17.4h16.27v17.4h13.67v12.77h-13.67v20.9c0,2.56,0.51,4.54,1.53,5.93
				c1.02,1.39,2.61,2.09,4.8,2.09c1.66,0,3.09-0.28,4.29-0.85c1.2-0.57,2.33-1.22,3.39-1.98l6.55,9.94
				c-5.05,4.07-10.62,6.1-16.72,6.1c-5.05,0-9.04-0.94-11.98-2.83c-2.94-1.88-5.03-4.48-6.27-7.8
				C378.34,114.93,377.72,111.09,377.72,106.72z"/>
			<path class="st3" d="M422.12,126.94V51.58h16.16v27.46c1.73-2.03,4.03-3.6,6.89-4.69c2.86-1.09,5.76-1.64,8.7-1.64
				c6.02,0,10.88,1.83,14.58,5.48c3.69,3.66,5.54,8.98,5.54,15.99v32.77h-16.16V96.66c0-3.09-0.79-5.5-2.37-7.23
				c-1.58-1.73-3.69-2.6-6.33-2.6c-3.47,0-6.12,1.17-7.97,3.5c-1.85,2.34-2.77,5.05-2.77,8.14v28.47H422.12z"/>
			<path class="st3" d="M486.98,126.94V51.58h16.16v27.46c1.73-2.03,4.03-3.6,6.89-4.69c2.86-1.09,5.76-1.64,8.7-1.64
				c6.02,0,10.88,1.83,14.58,5.48c3.69,3.66,5.54,8.98,5.54,15.99v32.77h-16.16V96.66c0-3.09-0.79-5.5-2.37-7.23
				c-1.58-1.73-3.69-2.6-6.33-2.6c-3.47,0-6.12,1.17-7.97,3.5c-1.85,2.34-2.77,5.05-2.77,8.14v28.47H486.98z"/>
			<path class="st3" d="M595.23,110.9l6.66,10.28c-0.75,0.53-2.09,1.39-4.01,2.6c-1.92,1.21-4.46,2.34-7.63,3.39
				c-3.16,1.06-7.04,1.58-11.64,1.58c-6.03,0-11.22-1.21-15.59-3.62c-4.37-2.41-7.72-5.76-10.05-10.05c-2.34-4.29-3.5-9.23-3.5-14.8
				c0-4.97,1.07-9.6,3.22-13.9c2.15-4.29,5.27-7.74,9.38-10.34c4.11-2.6,9.02-3.9,14.75-3.9c5.72,0,10.53,1.3,14.41,3.9
				c3.88,2.6,6.82,6.18,8.81,10.73c1.99,4.56,3,9.81,3,15.76v2.71h-37.74c0.07,2.79,1.36,5.27,3.84,7.46
				c2.49,2.18,5.84,3.27,10.06,3.27c4.22,0,7.64-0.62,10.28-1.86C592.1,112.88,594.02,111.8,595.23,110.9z M565.28,94.85h22.37
				c0-1.51-0.39-3.03-1.19-4.58c-0.79-1.54-2-2.84-3.61-3.9c-1.62-1.05-3.67-1.58-6.16-1.58c-2.49,0-4.57,0.53-6.27,1.58
				c-1.69,1.06-2.98,2.36-3.84,3.9C565.71,91.82,565.28,93.35,565.28,94.85z"/>
			<path class="st3" d="M613.41,126.94V51.58h16.27v75.36H613.41z"/>
			<path class="st3" d="M679.52,126.94l-0.68-5.31c-1.66,1.88-3.78,3.5-6.38,4.86c-2.6,1.36-5.56,2.03-8.87,2.03
				c-4.29,0-8.19-1.11-11.69-3.33c-3.5-2.22-6.29-5.38-8.36-9.49c-2.07-4.11-3.11-8.94-3.11-14.52c0-4.74,0.83-8.91,2.49-12.49
				c1.66-3.58,3.86-6.53,6.61-8.87c2.75-2.33,5.74-4.08,8.98-5.25c3.24-1.17,6.44-1.75,9.6-1.75c2.56,0,4.58,0.17,6.05,0.51
				c1.47,0.34,2.92,0.77,4.35,1.3V51.58h16.16v75.36H679.52z M678.5,102.99V88.53c-2.11-1.28-4.97-1.92-8.59-1.92
				c-4.14,0-7.36,1.39-9.66,4.18c-2.3,2.79-3.45,6.37-3.45,10.73c0,3.84,0.96,6.99,2.88,9.44c1.92,2.45,4.72,3.67,8.42,3.67
				c3.69,0,6.35-1.19,7.97-3.56S678.5,106,678.5,102.99z"/>
			<path class="st3" d="M713.3,126.94V82.88h-9.49V74.4h9.49v-4.29c0-4.74,0.86-8.62,2.6-11.64c1.73-3.01,3.99-5.23,6.78-6.67
				c2.78-1.43,5.76-2.15,8.93-2.15c2.79,0,5.52,0.43,8.19,1.3c2.67,0.87,5.14,2.36,7.4,4.46l-5.08,6.55
				c-2.79-2.33-5.76-3.5-8.93-3.5c-2.94,0-5.29,0.94-7.06,2.83c-1.77,1.88-2.66,5.12-2.66,9.72v3.39h15.03v8.47h-15.03v44.07H713.3z
				"/>
			<path class="st3" d="M773.07,128.52c-5.35,0-10.13-1.26-14.35-3.78c-4.22-2.52-7.51-5.91-9.89-10.17
				c-2.37-4.26-3.56-8.91-3.56-13.95c0-5.12,1.19-9.79,3.56-14.01c2.37-4.22,5.67-7.59,9.89-10.11c4.22-2.52,9-3.78,14.35-3.78
				c5.35,0,10.11,1.26,14.29,3.78c4.18,2.53,7.48,5.9,9.89,10.11c2.41,4.22,3.62,8.89,3.62,14.01c0,5.05-1.21,9.7-3.62,13.95
				s-5.71,7.65-9.89,10.17C783.18,127.26,778.41,128.52,773.07,128.52z M773.07,119.71c3.69,0,6.84-0.92,9.43-2.77
				c2.6-1.84,4.6-4.24,5.99-7.17c1.39-2.94,2.09-5.99,2.09-9.15s-0.7-6.22-2.09-9.15c-1.39-2.94-3.41-5.33-6.05-7.17
				c-2.64-1.85-5.76-2.77-9.38-2.77c-3.61,0-6.74,0.92-9.38,2.77c-2.64,1.85-4.65,4.22-6.05,7.12c-1.39,2.9-2.09,5.97-2.09,9.21
				c0,3.16,0.72,6.2,2.15,9.1c1.43,2.9,3.44,5.29,6.05,7.17C766.34,118.77,769.45,119.71,773.07,119.71z"/>
			<path class="st3" d="M823.69,126.94h-10.17V79.49c0-0.53,0-1.13,0-1.81c0-0.68-0.04-1.77-0.11-3.28h9.72l0.34,8.47
				c0.83-1.2,1.98-2.52,3.44-3.96c1.47-1.43,3.33-2.67,5.59-3.73c2.26-1.05,4.97-1.58,8.14-1.58c1.13,0,2.16,0.08,3.11,0.23
				c0.94,0.15,1.83,0.38,2.66,0.68l-2.26,9.49c-1.35-0.53-3.09-0.79-5.2-0.79c-2.86,0-5.45,0.73-7.74,2.2
				c-2.3,1.47-4.12,3.41-5.48,5.82c-1.36,2.41-2.04,5.08-2.04,8.02V126.94z"/>
			<path class="st3" d="M855.33,126.94V51.58h27.46c6.25,0,11.31,1.15,15.2,3.45c3.88,2.3,6.72,5.29,8.53,8.98
				c1.81,3.69,2.71,7.65,2.71,11.86c0,5.35-1.21,9.85-3.61,13.5c-2.41,3.66-5.56,6.4-9.43,8.25c-3.88,1.85-8.08,2.77-12.6,2.77
				h-11.64v26.55H855.33z M871.93,86.61h9.94c3.09,0,5.57-0.98,7.46-2.94c1.88-1.96,2.83-4.44,2.83-7.46c0-3.16-0.94-5.74-2.83-7.74
				c-1.88-1.99-4.41-2.99-7.57-2.99h-9.83V86.61z"/>
			<path class="st3" d="M919.27,126.94V73.95h15.59l0.57,6.67c1.35-1.81,3.22-3.54,5.59-5.2c2.37-1.66,5.44-2.49,9.21-2.49
				c1.43,0,2.66,0.08,3.67,0.23c1.02,0.15,2.01,0.42,3,0.79l-2.6,14.35c-1.66-0.53-3.61-0.79-5.88-0.79c-3.84,0-6.95,1.15-9.32,3.45
				c-2.37,2.3-3.56,5.56-3.56,9.77v26.21H919.27z"/>
			<path class="st3" d="M964.7,66.15V51.58h17.4v14.58H964.7z M965.26,126.94V73.95h16.27v52.99H965.26z"/>
			<path class="st3" d="M1012.04,126.94l-22.37-52.99h18.08l12.54,34.8l12.09-34.8h17.74l-22.71,52.99H1012.04z"/>
			<path class="st3" d="M1088.99,126.94l-0.45-4.97c-3.77,4.37-9.12,6.55-16.04,6.55c-2.49,0-5.11-0.47-7.85-1.41
				c-2.75-0.94-5.11-2.62-7.06-5.03c-1.96-2.41-2.94-5.72-2.94-9.94c0-4.14,1.07-7.65,3.22-10.51c2.15-2.86,5.06-5.03,8.76-6.5
				c3.69-1.47,7.83-2.2,12.43-2.2c1.88,0,3.78,0.04,5.71,0.11c1.92,0.08,3.18,0.19,3.79,0.34v-1.13c0-2.71-1.04-4.65-3.11-5.82
				c-2.07-1.17-4.43-1.75-7.06-1.75c-3.54,0-6.52,0.45-8.93,1.36c-2.41,0.9-4.44,1.92-6.1,3.05l-6.67-9.94
				c2.18-1.73,5.16-3.33,8.93-4.8c3.77-1.47,8.77-2.2,15.03-2.2c8.06,0,14.01,2.17,17.85,6.5c3.84,4.33,5.76,10.15,5.76,17.46v30.85
				H1088.99z M1088.54,107.85v-4.29c-0.38-0.07-1.09-0.17-2.15-0.28c-1.06-0.11-2.26-0.17-3.61-0.17c-4.52,0-7.72,0.64-9.6,1.92
				c-1.89,1.28-2.83,3.09-2.83,5.42c0,4.37,2.64,6.55,7.91,6.55c2.56,0,4.92-0.79,7.06-2.37
				C1087.46,113.04,1088.54,110.79,1088.54,107.85z"/>
			<path class="st3" d="M1155.2,109.32l9.49,10.62c-2.18,2.41-5.07,4.48-8.64,6.21c-3.58,1.73-7.82,2.6-12.71,2.6
				c-5.65,0-10.62-1.22-14.91-3.67c-4.29-2.45-7.65-5.8-10.06-10.06c-2.41-4.26-3.62-9.13-3.62-14.63c0-5.27,1.24-10.04,3.73-14.29
				c2.49-4.25,5.88-7.64,10.17-10.17c4.29-2.52,9.19-3.78,14.69-3.78c4.82,0,9.02,0.79,12.6,2.37c3.58,1.58,6.53,3.69,8.87,6.33
				l-9.83,10.62c-1.21-1.36-2.67-2.56-4.41-3.62c-1.73-1.05-4.03-1.58-6.89-1.58c-2.56,0-4.78,0.66-6.67,1.98
				c-1.88,1.32-3.33,3.05-4.35,5.2c-1.02,2.15-1.53,4.46-1.53,6.95c0,2.33,0.51,4.58,1.53,6.72c1.02,2.15,2.47,3.92,4.35,5.31
				s4.1,2.09,6.67,2.09c2.79,0,5.12-0.56,7-1.69C1152.56,111.69,1154.07,110.52,1155.2,109.32z"/>
			<path class="st3" d="M1169.66,146.49l6.55-11.19c0.9,0.68,1.92,1.28,3.05,1.81c1.13,0.53,2.3,0.79,3.5,0.79
				c1.73,0,3.2-0.55,4.41-1.64c1.2-1.09,2.3-2.96,3.28-5.59l1.58-4.29l-24.18-52.43h18.53l13.22,33.45l11.98-33.45h17.29
				l-21.7,52.65c-1.21,2.94-2.41,5.84-3.61,8.7c-1.21,2.86-2.62,5.48-4.24,7.85c-1.62,2.37-3.67,4.26-6.16,5.65
				c-2.49,1.39-5.57,2.09-9.27,2.09c-2.86,0-5.46-0.38-7.8-1.13C1173.77,149.01,1171.62,147.92,1169.66,146.49z"/>
		</g>
	</g>
</g>
<g id="Layer_2" class="st4">
</g>
</svg>
